 <svg  version="1.0" xmlns="http://www.w3.org/2000/svg"  width="300.000000pt" height="295.000000pt" viewBox="0 0 300.000000 295.000000"  preserveAspectRatio="xMidYMid meet">  <g transform="translate(0.000000,295.000000) scale(0.050000,-0.050000)" fill="#444444" stroke="none"> <path d="M2451 5828 c-1675 -260 -2766 -2078 -2230 -3714 461 -1406 1733 -2166 3269 -1953 1063 147 2084 1180 2282 2309 348 1983 -1320 3669 -3321 3358z m1039 -139 c1421 -246 2412 -1705 2160 -3179 -413 -2419 -3627 -3106 -4977 -1064 -1360 2056 374 4667 2817 4243z"/> <path d="M1505 5115 c-68 -69 -97 -88 -105 -67 -8 24 -18 22 -57 -10 l-47 -38 47 -2 c43 -1 42 -3 -14 -28 -82 -36 -111 -75 -113 -148 -3 -111 94 -178 189 -129 50 26 57 25 67 -7 5 -20 50 -114 99 -208 49 -95 89 -177 89 -183 0 -23 -198 49 -372 135 -323 160 -451 103 -647 -287 -405 -807 -339 -1888 159 -2623 91 -135 246 -280 297 -280 47 0 73 -32 92 -110 40 -170 568 -549 932 -669 966 -318 2070 -19 2739 742 203 232 480 694 480 802 0 20 13 57 30 82 155 237 180 1268 41 1684 -129 387 -326 715 -491 819 -57 36 -84 70 -99 125 -27 103 -114 202 -309 354 l-165 129 -1374 6 -1374 6 -94 -95z m2055 -98 c-71 -33 -211 -82 -310 -109 -99 -27 -241 -66 -315 -87 -158 -43 -184 -26 -85 53 76 61 87 86 39 86 -54 0 -195 -94 -298 -199 -111 -113 -115 -114 -250 -69 -132 43 -224 31 -118 -16 121 -53 113 -76 -27 -77 -69 0 -153 -13 -186 -27 l-60 -26 110 -16 110 -16 -90 -38 c-49 -21 -133 -66 -185 -99 -125 -80 -150 -68 -166 82 -12 98 -21 121 -50 121 -51 0 -63 26 -69 158 -3 63 -13 165 -20 228 l-15 114 1058 -1 1057 -2 -130 -60z m852 -26 c139 -113 328 -294 328 -314 0 -10 -49 -41 -110 -70 -126 -59 -136 -92 -45 -147 82 -50 117 -50 220 3 l83 42 65 -77 c349 -415 534 -1303 406 -1948 -91 -461 -443 -1156 -588 -1161 -12 0 -39 -38 -61 -85 -50 -104 -190 -214 -274 -214 -53 0 -58 -4 -34 -32 22 -27 19 -37 -23 -70 -675 -525 -1860 -588 -2639 -141 -207 119 -210 139 -30 196 l140 44 -216 1 c-342 3 -371 41 -315 422 20 139 25 138 -93 20 -131 -131 -145 -128 -275 55 -482 678 -587 1600 -272 2393 203 510 299 580 557 405 59 -40 144 -82 190 -93 233 -58 270 -111 237 -345 -33 -238 -28 -260 27 -125 28 66 50 123 50 126 0 4 8 1 18 -5 10 -6 1 -66 -20 -133 -62 -197 -35 -427 63 -541 l40 -47 -13 168 c-10 124 -8 164 9 154 13 -8 23 -37 23 -64 0 -63 36 -133 60 -118 10 6 14 121 10 256 l-9 244 34 -150 33 -150 15 80 c9 44 21 114 27 155 15 93 58 98 90 10 l24 -65 28 115 c54 229 126 323 159 210 32 -109 89 -97 89 19 1 183 34 235 77 117 27 -76 146 -191 197 -191 28 0 27 6 -8 45 -95 106 -69 132 38 38 189 -165 381 -194 216 -33 -84 82 -115 161 -43 107 248 -181 654 -413 679 -388 6 6 -18 52 -54 101 -102 142 -64 144 74 4 l126 -127 -246 -98 c-269 -107 -417 -217 -415 -311 l0 -48 41 55 c49 66 78 70 78 13 0 -136 147 -272 270 -249 172 32 253 211 192 424 -20 69 2 107 60 107 56 0 87 -60 100 -188 10 -112 13 -117 27 -57 14 58 19 62 41 32 86 -118 13 181 -95 387 -62 118 -66 194 -5 115 49 -66 165 -293 210 -414 91 -243 96 -127 7 150 -28 85 -47 166 -42 180 17 51 235 -406 235 -493 0 -44 60 -41 61 3 0 22 11 13 28 -25 40 -87 41 133 2 300 -37 157 -11 188 72 85 176 -218 86 136 -94 372 -87 114 -50 126 128 43 273 -127 187 11 -127 204 -305 187 -345 246 -169 246 175 0 132 33 -161 124 l-150 46 0 120 c0 66 -8 154 -18 197 l-17 76 289 -6 290 -7 98 -79z m-2932 -22 c0 -25 -130 -209 -154 -218 -51 -19 -25 63 46 145 63 75 108 105 108 73z m2156 -139 c26 -156 53 -201 222 -377 223 -234 262 -286 262 -352 0 -30 22 -98 50 -152 72 -144 73 -146 28 -191 l-40 -40 -79 70 c-43 39 -103 77 -133 84 -31 7 -78 27 -105 44 -34 20 -128 35 -287 44 -233 14 -239 15 -420 110 -171 90 -195 97 -334 98 -115 2 -170 13 -236 47 -138 73 -240 21 -462 -234 -166 -192 -231 -179 -302 59 -50 167 -50 180 1 180 55 0 224 87 372 192 69 49 164 96 217 108 99 22 156 50 268 131 64 46 84 49 330 49 l262 1 140 90 c150 98 234 111 246 39z m-76 -1371 c42 -77 17 -188 -43 -195 -100 -12 -152 121 -77 196 51 51 93 51 120 -1z"/> <path d="M2270 3682 c-33 -7 -59 -24 -58 -37 1 -14 4 -104 7 -200 4 -154 7 -167 25 -105 69 242 63 230 124 226 88 -7 106 -36 66 -104 -127 -215 117 -511 318 -385 64 40 128 150 128 221 0 57 29 53 78 -13 39 -53 41 -53 41 -10 2 94 -124 193 -397 312 -143 62 -262 112 -266 111 -3 -2 -33 -9 -66 -16z m516 -287 c31 -40 34 -58 15 -93 -42 -79 -146 -37 -173 70 -28 111 81 127 158 23z"/> <path d="M4244 3048 c-23 -16 -75 -92 -115 -168 -98 -187 -276 -376 -479 -509 -91 -61 -190 -139 -218 -175 -51 -64 -53 -65 -64 -21 -7 25 -28 45 -47 45 -70 0 -236 -61 -271 -100 -49 -54 -66 -50 -74 14 -5 49 -17 56 -136 78 -166 32 -279 73 -436 159 -186 102 -207 93 -233 -105 -12 -86 -22 -105 -58 -110 -24 -3 -43 -19 -43 -36 0 -32 224 -39 371 -10 79 15 219 -31 219 -72 0 -17 -31 -20 -111 -11 l-110 13 33 -50 c31 -48 31 -61 2 -176 -71 -279 -48 -368 66 -254 57 57 51 117 -13 141 -74 28 -41 49 79 49 156 0 224 164 77 186 -76 12 -31 84 51 84 54 0 86 -64 86 -173 0 -68 2 -71 55 -56 30 8 84 17 119 19 35 2 77 14 94 28 58 48 78 0 24 -56 -34 -36 -45 -61 -32 -74 39 -39 50 -271 14 -298 -81 -59 -206 14 -157 92 13 21 23 73 23 117 0 43 9 84 20 91 76 47 -14 64 -101 19 -73 -37 -75 -79 -6 -115 l53 -28 -63 -22 c-49 -17 -63 -16 -63 3 0 45 -49 133 -75 133 -48 0 7 -205 66 -249 43 -31 -16 -85 -112 -104 l-69 -13 47 39 c53 44 47 159 -10 181 -32 12 -107 -47 -107 -86 0 -42 -44 -56 -64 -21 -26 47 -56 41 -56 -12 -1 -66 -30 -101 -104 -126 -42 -14 -77 -45 -96 -85 -17 -34 -48 -76 -70 -92 -66 -48 -24 -55 193 -32 265 29 940 35 1327 13 265 -16 384 1 220 30 -35 6 -41 28 -51 159 -13 182 -53 258 -136 258 -118 0 -139 49 -41 96 119 58 145 103 118 206 -36 131 -14 163 136 198 75 18 109 -17 134 -140 38 -181 112 -254 437 -428 213 -114 210 -115 125 70 -119 258 -197 640 -221 1088 -22 407 -46 470 -147 398z m3 -343 c5 -8 19 -132 32 -275 13 -143 41 -347 62 -453 48 -238 48 -237 -2 -237 -62 0 -128 79 -177 211 -31 86 -71 145 -143 212 -54 51 -99 109 -99 129 0 122 285 482 327 413z m-395 -356 c7 -30 3 -62 -9 -74 -13 -13 -23 -48 -23 -79 0 -63 -28 -73 -58 -21 -18 33 -20 33 -33 0 -18 -48 -69 -44 -69 6 0 25 24 54 61 75 37 21 66 56 73 89 14 69 41 71 58 4z m-1535 -11 c70 -24 109 -78 91 -126 -14 -37 -71 -57 -115 -40 -45 17 -41 50 7 62 54 14 50 35 -15 84 -63 47 -57 51 32 20z m1239 -229 c-67 -37 -102 -98 -86 -150 15 -47 36 -50 70 -9 42 51 60 34 60 -56 0 -47 11 -97 24 -110 17 -17 18 -30 2 -46 -35 -35 -106 14 -106 73 0 41 -10 49 -60 49 -37 0 -60 10 -60 27 0 15 -18 43 -40 63 -55 49 -50 68 20 93 34 12 70 38 81 59 14 26 42 38 85 37 l64 -1 -54 -29z m-396 -96 c0 -84 -170 -140 -229 -74 -50 55 -25 75 55 45 57 -22 67 -21 91 16 31 45 83 54 83 13z m140 -314 c0 -123 27 -139 73 -44 20 41 46 71 57 65 33 -17 12 -86 -51 -164 -63 -79 -75 -127 -34 -142 29 -10 -1 -76 -41 -89 -32 -11 -144 103 -144 147 0 32 3 32 40 -2 67 -61 80 -12 44 172 -26 134 -13 211 28 176 17 -14 28 -62 28 -119z m379 -292 c89 -114 34 -177 -138 -157 l-125 14 96 98 c112 114 112 114 167 45z"/> <path d="M2413 3004 c-7 -11 15 -30 50 -42 120 -42 395 -20 321 25 -36 23 -359 38 -371 17z"/> <path d="M3280 2982 c0 -24 73 -41 170 -41 97 0 170 17 170 41 0 10 -76 18 -170 18 -93 0 -170 -8 -170 -18z"/> <path d="M1640 2880 c-113 -113 -37 -185 343 -321 280 -100 286 -91 77 105 -234 220 -354 282 -420 216z"/> <path d="M2933 2804 c-18 -29 39 -69 99 -69 49 0 105 35 86 54 -22 21 -174 34 -185 15z"/> <path d="M2894 2606 c-92 -38 -91 -76 6 -142 116 -79 340 -19 340 91 0 73 -216 105 -346 51z m221 -19 c87 -23 44 -47 -85 -47 -71 0 -130 8 -130 19 0 33 131 51 215 28z"/> <path d="M1939 1757 c-15 -35 -27 -106 -28 -156 l-1 -91 79 -6 c43 -4 89 -21 102 -38 35 -49 69 -12 69 74 0 62 -16 97 -83 174 -104 120 -106 121 -138 43z"/> </g> </svg> 